<svg width="128" height="128" viewBox="0 0 128 128" fill="none" xmlns="http://www.w3.org/2000/svg">
<g clip-path="url(#clip0_2_2)">
<path d="M0 0H128V128H0V0Z" fill="white"/>
<path d="M46.0065 45.8813C45.5709 45.2993 45.3719 44.8366 45.9374 44.246C46.7268 43.8304 47.0873 44.1169 47.4598 44.7751C47.7016 45.5659 48.0045 46.0011 48.523 46.6469C49.0241 47.1694 49.4436 47.6139 49.9939 48.0893C50.4106 48.4311 50.8794 48.7986 51.2771 49.1554C52.731 50.1858 53.288 50.5434 54.4468 51.89C54.627 50.8561 53.6665 45.0711 55.2409 45.1265C56.436 45.9499 55.6746 49.97 56.5819 50.8511C56.7805 50.9464 56.9388 50.9796 57.0485 51.1334C57.7851 51.7021 58.0104 51.865 58.186 52.7831C58.3263 52.9749 58.4695 53.1645 58.6156 53.3518C58.9923 53.8319 60.1908 53.9781 60.273 54.4645L59.7514 54.9379C58.1009 56.2843 54.9435 57.9734 58.061 59.557L58.2316 59.5096L58.0434 59.074C58.3823 58.2521 60.2228 57.0444 61.0879 56.8334C61.4179 56.2698 60.5271 55.661 60.132 55.142C60.6144 55.1323 60.5114 55.3899 61.0806 55.5576C61.9586 57.3219 63.5081 57.8155 65.0118 58.8944C65.1686 59.007 65.189 59.6718 65.7556 59.6706C67.7866 59.7838 66.1159 62.5728 68.2543 62.6881C68.959 62.7261 69.6485 62.651 70.3365 62.7765C71.3061 62.9368 72.5925 63.7179 73.5079 63.776C74.8079 62.9854 74.4883 60.3874 77.5029 58.8873C79.1548 61.3539 81.2291 63.1243 83.2934 65.2276C83.0734 65.8358 82.849 66.4423 82.6204 67.0471C83.5818 67.129 85.1399 67.531 85.8304 67.2435L86.0665 67.8524C86.2339 67.9926 87.3235 68.8728 87.3688 68.9545L88.1739 68.9125C88.9354 69.1941 89.6715 69.2199 90.4428 69.5275C93.5228 70.7561 94.1428 71.0588 97.1894 69.635C98.8899 68.8404 102.672 66.0695 104.016 68.3714C104.078 70.0711 97.735 69.5743 97.5636 71.0751C97.7469 71.4456 98.1329 71.6216 98.495 71.8438C99.104 71.8078 99.7134 71.7783 100.323 71.7553C104.898 71.0488 109.369 70.5536 113.402 73.3928C113.795 73.6695 114.231 74.0583 114.611 74.3115C114.765 75.0726 114.931 75.8314 115.109 76.5871C114.66 76.8741 113.858 77.4314 113.384 77.5789C111.563 78.6574 110.146 78.5909 108.209 79.1109C106.094 79.6786 104.036 80.1605 101.9 80.6283C101.664 80.6844 101.594 80.752 101.509 80.9496C103.081 81.3486 104.656 81.7341 106.234 82.1061C109.225 82.78 113.976 83.4764 115.959 86.1164C117.371 89.3825 113.694 90.0078 111.399 90.4818C110.073 90.9599 103.528 90.8696 101.777 90.9243C101.422 90.9354 101.371 90.7554 101.18 90.5039C100.147 90.5279 96.1619 89.7931 95.0408 89.5651C92.3159 89.3153 88.8535 89.4588 86.0741 89.5179C85.9789 90.5516 86.1341 91.2898 86.1439 92.268C82.6428 95.2479 77.1179 94.3708 73.0523 93.1149C69.2835 91.547 66.7438 89.738 62.7048 91.5038C59.6325 92.8468 57.0668 94.3418 53.7599 95.0983C52.1784 95.6158 51.0919 95.604 49.4586 95.6635C46.281 95.7794 38.5555 96.0071 41.1811 90.4993C41.6485 89.7888 43.1258 88.867 43.901 88.2795C39.5348 86.9251 35.1796 87.1884 30.6886 87.4069C30.2293 87.4291 29.4766 87.4173 29.0793 87.5714C29.1224 87.7855 29.1585 87.8589 29.0755 88.0621C28.4624 88.1324 27.1918 88.2316 26.554 88.2243C22.2554 88.1745 17.8948 88.8599 13.8565 87.0313C13.3525 86.8033 12.6113 86.4674 12.2112 86.1003C11.6383 85.5743 11.4841 83.8253 12.0908 83.3156C14.6103 80.418 17.3683 79.8351 21.0213 79.459C21.5063 79.2353 22.4391 79.3333 23.2318 78.8214C24.3078 78.3513 26.493 78.3133 27.7849 78.1923C27.932 78.1286 29.1811 77.8821 29.4206 77.8319C29.845 77.6398 29.6994 77.7579 29.9754 77.3848C29.7799 76.453 28.7755 76.2601 27.9631 76.1244C25.5128 75.9553 23.5594 73.91 24.1171 71.3606C25.4939 68.796 31.0949 68.1089 33.6128 68.4428C37.3879 68.9433 37.1979 70.0479 40.8164 68.0284C43.4838 66.5398 44.1219 67.3913 45.6128 63.9181C43.5748 61.9383 45.5008 62.5874 44.5994 60.5639C44.4741 60.2829 43.1048 58.8171 42.733 58.5014C41.1386 57.1471 38.3776 50.9834 39.6685 49.2588C39.9848 48.1211 40.7641 47.0974 41.5798 46.2691C41.9103 45.7903 42.4999 45.4048 42.9773 45.0775C43.9834 45.3236 44.5044 45.6593 45.332 46.2276L45.8468 46.3298C46.0034 46.1659 45.9585 46.1536 46.0065 45.8813Z" fill="#F9DDAB"/>
<path d="M46.0065 45.8813C45.5709 45.2993 45.3719 44.8366 45.9374 44.246C46.7268 43.8304 47.0873 44.1169 47.4598 44.7751C47.7016 45.5659 48.0045 46.0011 48.523 46.6469C49.0241 47.1694 49.4436 47.6139 49.9939 48.0893C50.4106 48.4311 50.8794 48.7986 51.2771 49.1554C52.731 50.1858 53.288 50.5434 54.4468 51.89C54.627 50.8561 53.6665 45.0711 55.2409 45.1265C56.436 45.9499 55.6746 49.97 56.5819 50.8511C56.7805 50.9464 56.9388 50.9796 57.0485 51.1334C57.7851 51.7021 58.0104 51.865 58.186 52.7831C58.3263 52.9749 58.4695 53.1645 58.6156 53.3518C58.9922 53.8319 60.1908 53.9781 60.273 54.4645L59.7514 54.9379C59.0179 55.2245 57.0242 56.9171 56.3139 57.5026C55.9811 58.3368 57.7271 59.3389 57.9608 60.1871L57.829 60.331C56.7095 60.3384 55.9055 59.6613 54.9155 59.0591C51.3908 61.0395 50.154 65.7388 48.3715 69.2241C48.3094 69.8318 48.3746 69.9996 48.5388 70.597C46.1181 70.9344 43.6205 71.13 41.3983 72.1875C41.1546 72.3034 40.0139 73.0206 39.8841 72.9815C40.5924 72.2838 41.8293 71.8645 42.769 71.3645C42.3374 70.6853 42.0153 70.3496 42.0941 69.5619C41.5526 68.9571 40.4638 69.6618 40.2079 70.2288C40.3961 70.8078 41.0229 70.8454 41.2955 71.5461L41.2308 71.657C40.5989 71.298 39.7088 71.1823 38.9263 70.9238C35.3186 69.7316 30.851 68.8136 27.2903 70.641C26.8555 70.8641 26.1849 71.0508 25.921 71.4291C26.0525 72.3181 28.3356 72.2628 28.9329 72.913C27.7448 72.6565 26.4045 72.3348 25.4734 71.5366L25.5249 71.3523C24.8738 71.2235 25.0883 71.2476 24.379 71.5324L24.1171 71.3606C25.4939 68.796 31.0949 68.1089 33.6128 68.4428C37.3879 68.9433 37.1979 70.0479 40.8164 68.0284C43.4838 66.5398 44.1219 67.3913 45.6128 63.9181C43.5748 61.9383 45.5008 62.5874 44.5994 60.5639C44.4741 60.2829 43.1048 58.8171 42.733 58.5014C41.1386 57.1471 38.3776 50.9834 39.6685 49.2588C39.9848 48.1211 40.7641 47.0974 41.5798 46.2691C41.9103 45.7903 42.4999 45.4048 42.9773 45.0775C43.9834 45.3236 44.5044 45.6593 45.332 46.2276L45.8468 46.3298C46.0034 46.1659 45.9585 46.1536 46.0065 45.8813Z" fill="#FAECD0"/>
<path d="M41.5798 46.269C41.7053 46.8495 41.123 47.2782 41.3086 48.3594C40.6919 49.2287 40.6354 49.6275 40.4766 50.6628C40.5481 51.0224 40.8211 52.6854 40.9066 52.8859C41.936 55.3007 44.136 57.1048 45.3173 59.3934C46.188 61.0803 46.595 63.3972 46.88 65.2767C44.4395 68.0709 42.6573 68.5854 39.3148 70.0169C39.9659 70.4672 40.239 70.6748 40.8218 71.2178C35.5833 69.844 30.512 67.7435 25.5249 71.3522C24.8738 71.2234 25.0883 71.2475 24.379 71.5323L24.1171 71.3605C25.4939 68.7959 31.0949 68.1088 33.6128 68.4427C37.3879 68.9432 37.1979 70.0478 40.8164 68.0283C43.4838 66.5397 44.1219 67.3912 45.6128 63.918C43.5748 61.9382 45.5008 62.5873 44.5994 60.5638C44.4741 60.2828 43.1048 58.817 42.733 58.5013C41.1386 57.147 38.3776 50.9833 39.6685 49.2587C39.9848 48.121 40.7641 47.0973 41.5798 46.269Z" fill="#815D36"/>
<path d="M41.5798 46.269C41.7053 46.8495 41.123 47.2782 41.3086 48.3594C40.6919 49.2287 40.6354 49.6275 40.4766 50.6628C40.0516 49.5782 40.3563 49.1257 40.1595 48.8258L39.6685 49.2587C39.9848 48.121 40.7641 47.0973 41.5798 46.269Z" fill="#835C33"/>
<path d="M46.0065 45.8813C45.5709 45.2993 45.3719 44.8366 45.9374 44.246C46.7267 43.8304 47.0873 44.1169 47.4598 44.7751C47.7016 45.5659 48.0045 46.0011 48.523 46.6469C49.0241 47.1694 49.4436 47.6139 49.9939 48.0893C50.4106 48.4311 50.8794 48.7986 51.2771 49.1554L50.0161 50.1858C49.3311 49.5843 48.0087 48.8275 47.1276 48.1149C46.4752 47.5684 45.3894 47.144 44.5976 46.8058C45.0668 46.768 45.2685 46.8086 45.7301 46.8769L45.7943 46.7485L45.332 46.2276L45.8467 46.3298C46.0034 46.1659 45.9585 46.1536 46.0065 45.8813Z" fill="#A07E5D"/>
<path d="M46.0065 45.8813C45.5709 45.2993 45.3719 44.8366 45.9374 44.246C46.7268 43.8304 47.0873 44.1169 47.4598 44.7751C47.7016 45.5659 48.0045 46.0011 48.523 46.6469C47.8993 47.2564 48.2161 47.0166 47.8753 47.8195L47.3951 47.6959C47.0571 47.3928 46.0149 46.567 45.8468 46.3298C46.0034 46.1659 45.9585 46.1536 46.0065 45.8813Z" fill="#DCB888"/>
<path d="M46.0065 45.8813C45.5709 45.2993 45.3719 44.8366 45.9374 44.246C46.7268 43.8304 47.0873 44.1169 47.4598 44.7751L46.0065 45.8813Z" fill="#A07E5D"/>
<path d="M47.8752 47.8195C48.2161 47.0166 47.8992 47.2564 48.523 46.6469C49.0241 47.1694 49.4436 47.6139 49.9939 48.0892C49.7982 48.3184 49.7717 48.3476 49.4916 48.4554C48.7644 48.4412 48.4742 48.2377 47.8752 47.8195Z" fill="#CCA06B"/>
<path d="M54.4468 51.89C54.627 50.8561 53.6665 45.0711 55.2409 45.1265C56.436 45.9499 55.6746 49.97 56.5819 50.8511C56.1926 51.7402 55.6054 52.5736 55.1873 53.5064C54.696 53.2491 54.2106 52.9779 53.6895 52.7892C54.2618 52.5339 54.4093 52.5239 54.4468 51.89Z" fill="#A07E5D"/>
<path d="M50.0161 50.1858L51.2771 49.1554C52.731 50.1858 53.288 50.5434 54.4467 51.89C54.4092 52.5239 54.2617 52.5339 53.6895 52.7893C52.2521 51.997 51.2716 51.2386 50.0161 50.1858Z" fill="#9C7144"/>
<path d="M42.9772 45.0775C43.9834 45.3236 44.5044 45.6593 45.332 46.2276L45.7942 46.7485L45.7301 46.8769C45.2685 46.8086 45.0667 46.768 44.5976 46.8058C44.1804 46.666 43.7646 46.5218 43.3505 46.3729C42.6474 47.2 42.0692 47.6331 41.3086 48.3595C41.123 47.2783 41.7052 46.8496 41.5797 46.2691C41.9102 45.7903 42.4999 45.4048 42.9772 45.0775Z" fill="#9C7144"/>
<path d="M57.0485 51.1333C57.7851 51.7021 58.0104 51.8649 58.186 52.7831C58.035 53.1456 58.0797 53.2168 57.7895 53.3856C57.27 52.9684 57.1761 51.8287 57.0485 51.1333Z" fill="#DCB888"/>
<path d="M88.1739 68.9124C88.9354 69.1941 89.6715 69.2198 90.4427 69.5274C93.5227 70.7561 94.1427 71.0587 97.1894 69.6349C98.8899 68.8403 102.672 66.0694 104.016 68.3713C104.078 70.0711 97.735 69.5742 97.5636 71.0751C97.7469 71.4456 98.1329 71.6216 98.495 71.8437C99.104 71.8077 99.7134 71.7782 100.323 71.7552C104.898 71.0487 109.368 70.5536 113.402 73.3927C113.795 73.6695 114.231 74.0582 114.611 74.3114C114.765 75.0726 114.931 75.8313 115.109 76.5871C114.66 76.8741 113.858 77.4313 113.384 77.5788C111.563 78.6573 110.146 78.5908 108.209 79.1108C106.094 79.6786 104.036 80.1604 101.9 80.6282C101.664 80.6843 101.594 80.7519 101.509 80.9496C100.859 81.0638 100.326 80.9703 99.6756 80.8973L99.5261 80.5023L99.8152 79.6653C99.2024 79.4863 99.0265 79.4855 98.3959 79.7606C97.7314 79.7726 97.6571 79.7378 97.1362 79.3811L96.6327 79.7936C95.9021 78.9637 94.8071 78.6075 93.739 78.5021C92.0224 79.4093 90.7701 79.3161 88.8334 79.4688C88.4122 79.5021 88.2811 79.3353 88.0492 79.0883C87.9517 78.2304 88.803 78.0912 89.4811 77.9318C90.0335 76.8448 89.0616 74.4912 88.1197 73.9801C87.5365 73.7932 87.1562 73.5766 86.6207 73.2942C85.8835 72.0523 85.389 69.1884 86.0665 67.8523C86.2339 67.9926 87.3235 68.8727 87.3687 68.9544L88.1739 68.9124Z" fill="#F4EEE3"/>
<path d="M88.1739 68.9124C88.9354 69.1941 89.6715 69.2198 90.4427 69.5274C93.5227 70.7561 94.1427 71.0587 97.1894 69.6349C98.8899 68.8403 102.672 66.0694 104.016 68.3713C104.078 70.0711 97.735 69.5742 97.5636 71.0751C97.7469 71.4456 98.1329 71.6216 98.495 71.8437C99.104 71.8077 99.7134 71.7782 100.323 71.7552C100.764 71.8647 100.946 71.8708 101.236 72.2193C101.293 72.7237 101.255 72.7002 100.814 73.0047C100.193 73.1125 98.7776 73.3232 98.2349 73.4854C97.4802 73.6983 94.6797 73.8406 94.0929 73.2786C93.7947 73.8262 93.8239 73.9089 93.171 74.0931C91.9337 74.2143 89.3435 74.1304 88.1197 73.9801C87.5365 73.7932 87.1562 73.5766 86.6207 73.2942C85.8835 72.0523 85.389 69.1884 86.0665 67.8523C86.2339 67.9926 87.3235 68.8727 87.3687 68.9544L88.1739 68.9124Z" fill="#A07E5D"/>
<path d="M86.0665 67.8523C86.2339 67.9925 87.3235 68.8727 87.3687 68.9544L87.4442 69.0425C87.9725 69.6702 87.8272 70.1449 88.1036 70.3517C89.7305 71.5694 92.4444 71.3276 94.0357 72.4799C94.1634 72.5723 94.1297 72.9393 94.1127 73.1045C94.1069 73.1625 94.1002 73.2205 94.0929 73.2785C93.7947 73.8262 93.8239 73.9089 93.171 74.093C91.9337 74.2143 89.3435 74.1304 88.1197 73.98C87.5365 73.7932 87.1562 73.5765 86.6207 73.2942C85.8835 72.0523 85.389 69.1884 86.0665 67.8523Z" fill="#FAEAC0"/>
<path d="M93.739 78.5021C94.5024 78.1464 94.8151 77.8264 95.7018 77.5759C97.9754 76.9337 100.376 76.4625 102.735 76.3144C104.529 76.2016 106.356 76.3125 108.153 76.1906C109.854 76.0692 111.449 75.6819 113.158 75.771C110.753 76.0298 112.17 76.1725 111.339 77.4075C111.96 77.3486 112.567 77.1732 113.073 77.4215L113.167 77.4662C113.243 77.5035 113.31 77.5384 113.384 77.5789C111.563 78.6574 110.146 78.5909 108.209 79.1109C106.094 79.6786 104.036 80.1605 101.9 80.6282C101.664 80.6844 101.594 80.752 101.509 80.9496C100.859 81.0639 100.326 80.9704 99.6756 80.8974L99.5261 80.5024L99.8153 79.6654C99.2024 79.4864 99.0265 79.4855 98.3959 79.7606C97.7314 79.7726 97.6571 79.7379 97.1363 79.3811L96.6328 79.7936C95.9021 78.9637 94.8071 78.6075 93.739 78.5021Z" fill="#E9C38E"/>
<path d="M111.339 77.4074C111.96 77.3486 112.567 77.1732 113.073 77.4214L113.166 77.4662C113.243 77.5034 113.31 77.5383 113.384 77.5788C111.563 78.6573 110.146 78.5908 108.209 79.1108C106.094 79.6786 104.036 80.1604 101.9 80.6282C101.664 80.6843 101.594 80.7519 101.509 80.9496C100.859 81.0638 100.326 80.9703 99.6756 80.8973L99.5261 80.5023L99.8152 79.6653L101.933 79.2562C103.617 79.2251 109.383 77.8401 111.339 77.4074Z" fill="#775A43"/>
<path d="M97.1363 79.3812C98.8544 77.9379 100.047 79.1977 101.876 79.2548L101.933 79.2563L99.8153 79.6654C99.2024 79.4864 99.0265 79.4855 98.3959 79.7607C97.7314 79.7727 97.6571 79.7379 97.1363 79.3812Z" fill="#DCB888"/>
<path d="M93.171 74.0931C93.8239 73.9089 93.7947 73.8262 94.0929 73.2786C94.6797 73.8406 97.4803 73.6983 98.2349 73.4854L98.1804 73.5842C97.2659 75.2663 97.2264 77.1318 94.438 77.0264C93.3013 77.2137 90.4612 77.8653 89.4811 77.9318C90.0335 76.8448 89.0616 74.4912 88.1198 73.9801C89.3435 74.1304 91.9337 74.2143 93.171 74.0931Z" fill="#EDD0A7"/>
<path d="M93.171 74.0931C93.8239 73.9089 93.7947 73.8262 94.0929 73.2786C94.6797 73.8406 97.4802 73.6983 98.2349 73.4854L98.1804 73.5842C97.2659 75.2663 97.2264 77.1318 94.438 77.0264L94.8205 76.8882C95.3255 76.7028 96.0394 76.5121 96.269 76.0153C95.9439 75.2523 95.0275 75.3201 94.3494 74.9002C93.9165 74.6322 93.625 74.3588 93.171 74.0931Z" fill="#FAECD0"/>
<path d="M100.323 71.7552C104.898 71.0487 109.368 70.5536 113.402 73.3927C113.795 73.6695 114.231 74.0582 114.611 74.3115C114.765 75.0726 114.931 75.8313 115.109 76.5871C114.66 76.8741 113.858 77.4313 113.384 77.5788C113.31 77.5383 113.243 77.5035 113.166 77.4662L113.073 77.4215C112.567 77.1732 111.96 77.3486 111.339 77.4075C112.17 76.1725 110.753 76.0297 113.158 75.771C113.511 75.5868 113.408 75.7065 113.537 75.3191C113.401 74.7333 112.533 74.0158 112.053 73.7027C108.647 71.483 104.507 72.3031 100.814 73.0047C101.255 72.7002 101.293 72.7237 101.236 72.2193C100.946 71.8708 100.764 71.8647 100.323 71.7552Z" fill="#906035"/>
<path d="M55.2894 87.0734C55.9002 87.7 57.7791 89.2839 57.3611 90.1807C58.129 90.0747 61.1135 88.8722 62.0432 88.5902C63.894 88.0289 65.3394 87.7215 67.2666 87.4386C68.3027 87.9169 71.4937 89.0511 72.5721 89.2057C73.4179 89.4712 75.5544 89.9962 76.2034 90.2472C76.6181 90.3166 77.0405 90.3747 77.4427 90.4946C78.26 90.5306 80.948 90.7485 81.5807 90.4796L81.7145 90.2014C82.0052 90.1999 83.4376 90.3337 83.6336 90.4829C83.7556 90.9919 83.8765 91.55 84.0342 92.0449C85.0295 91.7881 85.0274 90.5752 85.1871 89.6862C84.679 89.1777 84.4766 88.9537 83.849 88.571C83.9609 88.2244 83.8707 88.3307 84.1786 88.1661C84.5747 88.2442 84.7431 88.2589 85.1386 88.2794C84.9305 88.6414 84.8989 88.6911 84.947 89.1021C85.3207 89.4627 85.504 89.4274 86.0741 89.5179C85.9789 90.5516 86.1341 91.2897 86.1439 92.268C82.6427 95.2479 77.1179 94.3707 73.0522 93.1149C69.2835 91.547 66.7437 89.738 62.7047 91.5037C59.6325 92.8467 57.0667 94.3417 53.7599 95.0982C52.1784 95.6157 51.0919 95.604 49.4586 95.6635C46.281 95.7794 38.5555 96.0071 41.1811 90.4992C41.55 90.8711 41.5637 91.4775 41.6586 92.0275L41.7462 91.2867C42.1891 90.7844 42.8001 90.3785 43.3905 90.0709C44.2112 89.5297 45.039 88.9995 45.8737 88.4802L46.489 88.3679C47.7727 89.0244 50.4184 88.2885 51.7974 88.324C52.1977 88.3342 52.7377 88.5202 53.1664 88.6174C53.9382 88.1579 54.5839 87.627 55.2894 87.0734Z" fill="#E4BF8B"/>
<path d="M55.2894 87.0734C55.9002 87.7 57.7791 89.2839 57.3611 90.1807L56.4946 90.5869C56.2412 90.9656 55.943 91.3566 55.8275 91.7919L55.8629 91.8997C56.62 94.2606 52.9802 93.1601 51.8295 93.4516C52.8572 93.7535 53.4599 93.8227 54.5416 93.8749C53.3034 94.2829 52.9647 94.3632 51.7286 94.6286C52.8331 94.6525 52.7537 94.7471 53.7599 95.0982C52.1784 95.6157 51.0919 95.604 49.4586 95.6635C46.281 95.7794 38.5555 96.0071 41.1811 90.4992C41.55 90.8711 41.5637 91.4775 41.6586 92.0275L41.7462 91.2867C42.1891 90.7844 42.8001 90.3785 43.3905 90.0709C44.2112 89.5297 45.039 88.9995 45.8737 88.4802L46.489 88.3679C47.7727 89.0244 50.4184 88.2885 51.7974 88.324C52.1977 88.3342 52.7377 88.5202 53.1664 88.6174C53.9382 88.1579 54.5839 87.627 55.2894 87.0734Z" fill="#F4EEE3"/>
<path d="M41.7462 91.2867C42.1891 90.7843 42.8001 90.3784 43.3905 90.0708C43.5392 90.1331 43.686 90.1782 43.8016 90.287L43.9141 90.6233C44.434 91.8335 44.9137 92.9498 46.3121 93.2278C47.3991 93.2785 48.3449 93.2677 49.4344 93.2456C49.9357 93.3166 51.3925 93.5414 51.8295 93.4515C52.8572 93.7534 53.4599 93.8227 54.5416 93.8748C53.3034 94.2828 52.9647 94.3632 51.7286 94.6285C52.8331 94.6524 52.7537 94.7471 53.7599 95.0982C52.1784 95.6157 51.0919 95.6039 49.4586 95.6634C46.281 95.7793 38.5555 96.0071 41.1811 90.4992C41.55 90.8711 41.5637 91.4774 41.6586 92.0274L41.7462 91.2867Z" fill="#DCB888"/>
<path d="M41.1811 90.4993C41.55 90.8711 41.5637 91.4775 41.6586 92.0275C41.7301 92.5913 41.82 93.1525 41.928 93.7104C43.4311 95.0666 48.605 94.8076 50.6885 94.6986C51.0355 94.6804 51.3822 94.657 51.7286 94.6286C52.8331 94.6525 52.7537 94.7471 53.7599 95.0983C52.1784 95.6158 51.0919 95.604 49.4586 95.6635C46.281 95.7794 38.5555 96.0071 41.1811 90.4993Z" fill="#775A43"/>
<path d="M41.7463 91.2867C42.1891 90.7843 42.8001 90.3784 43.3905 90.0708C43.5393 90.1331 43.686 90.1782 43.8016 90.287L43.9141 90.6233C44.434 91.8335 44.9138 92.9498 46.3121 93.2278L45.9148 93.2724C43.752 93.8634 43.9593 93.6578 41.928 93.7103C41.82 93.1524 41.7301 92.5912 41.6586 92.0274L41.7463 91.2867Z" fill="#FAECD0"/>
<path d="M41.6586 92.0275L41.7463 91.2867C41.9653 92.1094 42.1903 92.2204 42.8591 92.7744C43.5583 92.8772 45.3161 93.0949 45.9148 93.2725C43.752 93.8635 43.9593 93.6579 41.928 93.7104C41.82 93.1525 41.7301 92.5912 41.6586 92.0275Z" fill="#DCB888"/>
<path d="M46.489 88.3679C47.7728 89.0244 50.4184 88.2885 51.7974 88.324C52.1978 88.3343 52.7378 88.5203 53.1664 88.6174L53.1186 88.6501C52.4873 89.0924 51.1181 90.4206 50.6539 90.5099L50.568 90.527C49.4156 90.7501 47.8519 90.7669 46.6646 90.8579C45.7844 90.9253 44.8176 89.4414 43.9141 90.6234L43.8016 90.2871C43.686 90.1783 43.5393 90.1331 43.3905 90.0709C44.2113 89.5298 45.039 88.9995 45.8738 88.4803L46.489 88.3679Z" fill="#FAEAC0"/>
<path d="M49.4344 93.2457C51.0669 92.9822 50.6805 92.5023 51.9409 92.1907C53.6673 91.7637 54.8871 91.3017 56.4946 90.5869C56.2413 90.9657 55.943 91.3567 55.8275 91.7919L55.8629 91.8998C56.62 94.2607 52.9803 93.1602 51.8295 93.4517C51.3925 93.5415 49.9358 93.3167 49.4344 93.2457Z" fill="#EDD0A7"/>
<path d="M83.849 88.571C83.9609 88.2244 83.8707 88.3308 84.1786 88.1661C84.5747 88.2443 84.7431 88.2589 85.1386 88.2794C84.9305 88.6414 84.8989 88.6911 84.947 89.1021C85.3207 89.4628 85.504 89.4274 86.0741 89.5179C85.9789 90.5516 86.1341 91.2898 86.1439 92.268C82.6427 95.2479 77.1179 94.3708 73.0522 93.1149C73.0927 92.7799 73.0989 92.2824 73.1137 91.9318C74.8164 92.2194 81.8052 92.7739 83.1552 91.9059L84.0342 92.0449C85.0295 91.7881 85.0274 90.5753 85.1871 89.6863C84.679 89.1778 84.4766 88.9538 83.849 88.571Z" fill="#977A5E"/>
<path d="M54.5416 93.8748C54.9291 93.8396 55.8758 93.4888 56.2785 93.3715C60.1193 92.253 62.8325 89.0033 67.2363 89.8598C69.304 90.262 71.017 91.3847 73.1138 91.9317C73.0989 92.2823 73.0928 92.7798 73.0523 93.1148C69.2835 91.547 66.7438 89.738 62.7048 91.5037C59.6325 92.8467 57.0668 94.3417 53.7599 95.0982C52.7538 94.7471 52.8331 94.6525 51.7286 94.6286C52.9648 94.3632 53.3034 94.2828 54.5416 93.8748Z" fill="#604432"/>
<path d="M81.5807 90.4797L81.7145 90.2014C82.0053 90.1999 83.4376 90.3338 83.6336 90.4829C83.7556 90.9919 83.8765 91.5501 84.0342 92.0449L83.1553 91.9059C82.2146 90.1458 78.346 91.2654 77.4427 90.4947C78.26 90.5307 80.948 90.7485 81.5807 90.4797Z" fill="#EDD0A7"/>
<path d="M43.901 88.2795C39.5348 86.9252 35.1796 87.1884 30.6886 87.4069C30.2293 87.4292 29.4766 87.4173 29.0793 87.5714C29.1224 87.7855 29.1585 87.8589 29.0755 88.0622C28.4624 88.1324 27.1918 88.2317 26.554 88.2243C22.2554 88.1745 17.8948 88.8599 13.8565 87.0313C13.3525 86.8033 12.6113 86.4674 12.2112 86.1003C11.6383 85.5743 11.4841 83.8253 12.0908 83.3157C12.4207 83.481 12.6613 83.6244 13.0314 83.678L12.9203 84.0967C14.5854 84.6775 19.512 84.59 21.242 84.4944C24.41 84.5197 27.5859 84.7249 30.7429 84.5875C31.4701 84.5558 31.9344 83.9304 32.6865 83.8813C36.6713 83.6207 42.2199 82.9962 45.8975 84.6374C46.1804 84.7637 46.4648 84.7454 46.6206 84.83C45.5286 84.9253 46.157 85.4548 45.3391 86.0499C45.0001 86.0603 44.9171 86.0704 44.589 86.0037C45.5648 86.679 47.0218 87.2904 45.8738 88.4803C45.039 88.9995 44.2113 89.5298 43.3905 90.0709C42.8001 90.3785 42.1891 90.7844 41.7463 91.2868L41.6586 92.0275C41.5638 91.4775 41.55 90.8712 41.1811 90.4993C41.6485 89.7888 43.1258 88.867 43.901 88.2795Z" fill="#DCB888"/>
<path d="M43.901 88.2795C39.5348 86.9252 35.1796 87.1884 30.6886 87.4069C30.2293 87.4292 29.4766 87.4173 29.0793 87.5714C29.1224 87.7855 29.1585 87.8589 29.0755 88.0622C28.4624 88.1324 27.1918 88.2317 26.554 88.2243C22.2554 88.1745 17.8948 88.8599 13.8565 87.0313C13.3525 86.8033 12.6113 86.4674 12.2112 86.1003C11.6383 85.5743 11.4841 83.8253 12.0908 83.3157C12.4207 83.481 12.6613 83.6244 13.0314 83.678L12.9203 84.0967C12.5129 85.0985 14.1458 85.8209 14.9296 86.1055C18.7485 87.4924 23.3504 86.9264 27.3595 86.7574C29.7055 86.6585 32.4815 85.9062 34.8999 85.7944C35.0858 85.7859 35.4876 85.2643 35.5916 85.1194C36.0749 84.3297 37.1169 85.3818 37.7239 85.464C39.6529 85.7257 42.754 85.4415 44.589 86.0037C45.5648 86.679 47.0218 87.2904 45.8738 88.4803C45.039 88.9995 44.2113 89.5298 43.3905 90.0709C42.8001 90.3785 42.1891 90.7844 41.7463 91.2868L41.6586 92.0275C41.5638 91.4775 41.55 90.8712 41.1811 90.4993C41.6485 89.7888 43.1258 88.867 43.901 88.2795Z" fill="#775A43"/>
<path d="M83.849 88.571L83.5762 88.5032C82.2526 87.3816 83.7195 86.0022 84.9859 85.7536C85.8627 85.5813 86.5089 85.517 87.4055 85.5315C90.2402 85.5853 92.7475 85.5781 95.5269 86.1808C97.0636 86.5141 102.093 87.6391 103.568 87.4657C105.74 87.6881 113.13 87.9015 114.847 86.7915L114.9 86.4998C114.773 86.0978 114.36 85.8076 114.03 85.5225C115.302 85.5611 114.994 86.3225 115.959 86.1163C117.371 89.3825 113.694 90.0077 111.399 90.4817C110.073 90.9598 103.528 90.8696 101.777 90.9242C101.422 90.9353 101.371 90.7553 101.18 90.5038C100.147 90.5278 96.1619 89.7931 95.0407 89.5651C92.3159 89.3152 88.8535 89.4587 86.0741 89.5178C85.504 89.4273 85.3207 89.4627 84.947 89.1021C84.8989 88.6911 84.9305 88.6413 85.1386 88.2793C84.7431 88.2588 84.5747 88.2442 84.1786 88.1661C83.8707 88.3307 83.9609 88.2243 83.849 88.571Z" fill="#DCB888"/>
<path d="M85.1386 88.2794C86.662 88.1511 94.8061 87.8689 95.676 88.557C95.6973 88.5739 95.717 88.5925 95.7376 88.6103C95.5156 89.0503 95.4575 89.3765 95.0408 89.5651C92.3159 89.3153 88.8535 89.4588 86.0741 89.5179C85.504 89.4274 85.3208 89.4628 84.947 89.1021C84.8989 88.6911 84.9305 88.6414 85.1386 88.2794Z" fill="#775A43"/>
<path d="M102.143 89.5652C104.439 89.7609 107.055 89.7344 109.359 89.7409C109.924 89.7666 110.626 89.6929 111.062 89.9572C111.178 90.1303 111.299 90.2994 111.399 90.4818C110.073 90.9599 103.528 90.8697 101.777 90.9243C101.422 90.9354 101.371 90.7554 101.18 90.5039C101.389 89.6218 101.3 89.6768 102.143 89.5652Z" fill="#775A43"/>
<path d="M114.031 85.5225C115.302 85.5611 114.994 86.3225 115.959 86.1163C117.371 89.3825 113.694 90.0077 111.399 90.4817C111.299 90.2993 111.179 90.1302 111.062 89.9571C110.626 89.6928 109.924 89.7665 109.359 89.7408C111.245 89.5235 114.443 88.9792 114.847 86.7915L114.9 86.4998C114.773 86.0978 114.36 85.8076 114.031 85.5225Z" fill="#9C7144"/>
<path d="M95.7376 88.6102C96.4417 88.9101 96.4272 88.3723 97.1709 88.5663C98.832 88.9994 100.464 89.2648 102.143 89.565C101.3 89.6767 101.389 89.6217 101.18 90.5038C100.147 90.5278 96.1619 89.793 95.0407 89.565C95.4575 89.3764 95.5156 89.0502 95.7376 88.6102Z" fill="#A07E5D"/>
<path d="M23.2318 78.8213C23.501 79.4219 23.3333 79.2352 23.8891 79.5715L25.1534 79.4554L25.2448 79.5943C24.7316 80.1877 24.7679 82.0437 24.9939 82.739L25.0844 82.7977C25.4851 83.0609 25.5481 83.1425 25.8284 83.5275C25.8931 84.6164 22.1148 84.2947 21.242 84.4943C19.512 84.5899 14.5854 84.6774 12.9203 84.0965L13.0314 83.6779C12.6613 83.6243 12.4207 83.4809 12.0908 83.3155C14.6103 80.4179 17.3683 79.835 21.0213 79.4589C21.5063 79.2352 22.4391 79.3332 23.2318 78.8213Z" fill="#F4EEE3"/>
<path d="M12.0908 83.3156C14.6103 80.418 17.3683 79.8351 21.0213 79.459L21.1949 79.62C21.5489 79.5587 21.6416 79.4829 21.9414 79.6012L21.9388 79.7031L21.5006 79.7881L21.6319 79.9797C18.2849 81.0546 15.9483 81.0771 13.0314 83.678C12.6613 83.6244 12.4207 83.481 12.0908 83.3156Z" fill="#9C7144"/>
<path d="M23.2317 78.8213C23.501 79.4219 23.3332 79.2352 23.8891 79.5715C23.564 79.6334 21.8516 79.9787 21.6319 79.9797L21.5006 79.788L21.9387 79.703L21.9414 79.6012C21.6416 79.4828 21.5489 79.5587 21.1949 79.6199L21.0212 79.4589C21.5062 79.2352 22.4391 79.3332 23.2317 78.8213Z" fill="#835C33"/>
<path d="M99.6756 80.8975C100.326 80.9705 100.859 81.064 101.509 80.9497C103.081 81.3487 104.656 81.7342 106.234 82.1062C109.225 82.7801 113.976 83.4765 115.959 86.1165C114.994 86.3226 115.302 85.5612 114.031 85.5226C114.36 85.8077 114.773 86.098 114.9 86.5L114.847 86.7916C113.13 87.9016 105.74 87.6882 103.568 87.4658C104.038 87.344 104.993 87.401 105.582 87.3343C104.723 87.0312 105.106 86.6313 104.455 86.1123C104.123 86.3033 104.164 86.4913 104.014 86.9532L103.831 86.8701L103.831 86.8775L103.76 86.6313C104.027 85.7186 105.093 84.444 105.686 83.6583C105.796 83.5128 106.656 83.4945 106.908 83.4782C105.477 83.2981 105.52 82.8756 104.349 82.4856C103.767 82.2918 102.212 82.215 101.525 82.0487C100.91 81.9 100.424 81.6895 99.8146 81.5223L99.6756 80.8975Z" fill="#F4EEE3"/>
<path d="M99.6756 80.8975C100.326 80.9705 100.859 81.064 101.509 80.9497C103.081 81.3487 104.656 81.7342 106.234 82.1062C109.225 82.7801 113.976 83.4765 115.959 86.1165C114.994 86.3226 115.302 85.5612 114.031 85.5226C110.472 83.6948 110.614 84.4027 106.908 83.4782C105.477 83.2981 105.52 82.8756 104.349 82.4856C103.767 82.2918 102.212 82.215 101.525 82.0487C100.91 81.9 100.424 81.6895 99.8146 81.5223L99.6756 80.8975Z" fill="#835C33"/>
<path d="M24.1171 71.3606L24.379 71.5324C25.0882 71.2476 24.8737 71.2235 25.5249 71.3523L25.4734 71.5366C26.4045 72.3348 27.7447 72.6565 28.9329 72.913C32.674 74.241 34.5642 73.6671 37.4736 76.5659C36.0539 77.2778 34.6909 78.1639 33.1166 78.098C32.2844 78.4409 31.3864 78.4119 30.4929 78.4234L30.4314 78.1999C30.0469 77.8534 30.0137 77.9436 29.4206 77.8319C29.845 77.6398 29.6994 77.7579 29.9754 77.3848C29.7799 76.453 28.7755 76.2601 27.9631 76.1244C25.5127 75.9553 23.5594 73.91 24.1171 71.3606Z" fill="#DCB888"/>
<path d="M29.5541 75.3589C30.6128 75.4819 33.5791 75.8486 33.5601 77.4543C33.558 77.6288 33.2459 77.9411 33.1166 78.098C32.2844 78.4409 31.3864 78.4119 30.4929 78.4234L30.4314 78.1999C30.0469 77.8534 30.0138 77.9436 29.4206 77.8319C29.845 77.6398 29.6994 77.7579 29.9754 77.3848C29.7799 76.453 28.7755 76.2601 27.9631 76.1244C28.9384 76.1175 28.9431 76.1316 29.5541 75.3589Z" fill="#775A43"/>
<path d="M24.1171 71.3606L24.379 71.5324C25.0882 71.2476 24.8737 71.2235 25.5249 71.3523L25.4734 71.5366C24.8464 71.9236 24.0827 72.6211 24.7242 73.4073C25.8905 74.8366 27.8257 75.177 29.5541 75.3589C28.9431 76.1316 28.9384 76.1175 27.9631 76.1244C25.5127 75.9553 23.5594 73.91 24.1171 71.3606Z" fill="#443425"/>
<path d="M78.4021 86.5828C78.5529 86.6343 79.1616 86.8553 79.2287 86.9396C79.7542 87.6016 81.543 89.7111 81.5807 90.4796C80.948 90.7485 78.26 90.5306 77.4427 90.4946C77.0405 90.3748 76.6181 90.3166 76.2034 90.2473C76.164 89.3349 76.4546 87.6356 76.6017 86.7144C77.2022 86.6766 77.8025 86.6328 78.4021 86.5828Z" fill="#F4EEE3"/>
<path d="M72.5721 89.2057C73.3173 89.0402 74.0933 89.6856 74.6936 89.447C75.1601 89.0045 75.4865 88.0427 75.4704 87.4425C75.4626 87.1559 75.9954 86.9746 76.2833 86.8327L76.294 86.7336C75.7461 86.5491 73.9771 86.4662 73.2924 86.4151C74.5909 86.2647 77.13 86.3641 78.4021 86.5827C77.8025 86.6327 77.2023 86.6766 76.6018 86.7144C76.4546 87.6356 76.164 89.3349 76.2034 90.2472C75.5544 89.9962 73.4179 89.4712 72.5721 89.2057Z" fill="#FAECD0"/>
<path d="M23.2318 78.8214C24.3078 78.3513 26.493 78.3133 27.7849 78.1923L28.0021 78.3343L27.9265 78.437C27.9756 78.6355 28.0174 78.8093 28.0548 79.0105C27.4803 79.1299 25.411 79.3396 25.1534 79.4555L23.8891 79.5716C23.3333 79.2353 23.501 79.422 23.2318 78.8214Z" fill="#744A2A"/>
<path d="M97.1363 79.3811C97.6571 79.7379 97.7314 79.7726 98.3959 79.7606C99.0265 79.4855 99.2024 79.4864 99.8152 79.6654L99.5261 80.5023L99.6756 80.8974L99.8146 81.5222C98.2671 81.2185 97.7939 80.8445 96.6328 79.7936L97.1363 79.3811Z" fill="#CCA06B"/>
<path d="M44.589 86.0037C44.9171 86.0705 45.0001 86.0603 45.3391 86.0499C46.157 85.4548 45.5286 84.9253 46.6206 84.8301C46.725 86.264 46.6864 86.9408 46.489 88.368L45.8737 88.4803C47.0217 87.2904 45.5647 86.6791 44.589 86.0037Z" fill="#CCA06B"/>
<path d="M27.7849 78.1923C27.932 78.1287 29.1811 77.8822 29.4206 77.8319C30.0138 77.9437 30.0469 77.8534 30.4314 78.1999L30.4929 78.4234C29.5945 78.6038 28.9308 78.7495 28.0548 79.0105C28.0174 78.8093 27.9756 78.6355 27.9265 78.437L28.0021 78.3343L27.7849 78.1923Z" fill="#835C33"/>
<path d="M48.5387 70.597C48.3746 69.9996 48.3094 69.8317 48.3715 69.2241C48.9604 69.3501 49.5155 69.7012 49.3691 70.3775C49.0522 70.6275 48.9302 70.601 48.5387 70.597Z" fill="#EDD0A7"/>
<path d="M58.8676 64.1564C62.4178 62.6414 66.8914 62.6579 70.7275 63.1989C71.3653 63.2888 73.3946 64.2115 73.7468 64.2132C76.6743 64.329 80.1673 68.7972 81.6824 71.0007C82.8104 72.769 82.8711 74.4439 82.4213 76.501C82.3978 76.6089 82.3709 76.7159 82.341 76.822C81.585 77.6692 80.4785 79.0275 79.2218 78.8222C78.1711 78.8035 77.6403 79.7069 76.2978 80.0022C75.3289 80.2152 72.396 80.3815 71.7876 80.9715C71.6086 81.1452 71.4934 81.2233 71.2408 81.2609C66.8446 81.9159 55.7953 80.7708 52.2524 78.2013C51.56 77.9354 50.9458 77.3443 50.4273 76.83C49.9048 74.1379 50.076 71.4645 51.9883 69.3334C53.7791 67.3375 55.6304 65.1978 58.2658 64.3819L58.8676 64.1564Z" fill="#FCBC18"/>
<path d="M80.6029 70.905L81.211 71.692C81.2955 71.5165 81.5579 71.1738 81.6824 71.0007C82.8104 72.769 82.8711 74.4439 82.4212 76.501C82.3977 76.6089 82.3709 76.7159 82.341 76.822C81.585 77.6692 80.4785 79.0275 79.2217 78.8222C78.1711 78.8035 77.6403 79.7069 76.2978 80.0022C75.3289 80.2152 72.396 80.3815 71.7876 80.9715C71.6086 81.1452 71.4934 81.2233 71.2408 81.2609C66.8446 81.9159 55.7953 80.7708 52.2524 78.2013C52.0158 77.4407 51.8047 77.8895 51.5609 77.3367C51.755 77.266 51.7775 77.2655 51.9544 77.1443C51.9153 77.1225 51.8765 77.0997 51.8384 77.076C51.5542 76.8978 51.1907 76.6174 51.1637 76.2787C51.0276 74.5705 51.2511 72.488 52.161 71.0603C52.3292 72.7878 54.5447 74.1552 56.0942 74.516C64.3985 76.4504 74.1642 77.9028 80.6029 70.905Z" fill="#E8940B"/>
<path d="M81.6824 71.0006C82.8104 72.769 82.8711 74.4439 82.4213 76.501C82.3978 76.6089 82.3709 76.7159 82.341 76.822C81.585 77.6691 80.4785 79.0275 79.2218 78.8221L79.1061 78.5959C79.1325 77.6224 82.6734 77.0976 81.211 71.692C81.2955 71.5165 81.5579 71.1737 81.6824 71.0006Z" fill="#CD7A1B"/>
<path d="M58.8676 64.1564C62.4177 62.6414 66.8914 62.6579 70.7275 63.1989C71.3652 63.2888 73.3946 64.2115 73.7467 64.2132C73.7982 64.9424 73.8662 64.8634 74.2742 65.4203L74.3689 65.548C73.8446 65.3441 72.6269 65.2202 72.0189 65.0359C69.981 64.4185 63.3491 63.6129 61.8739 65.1788C61.321 65.5807 60.8434 65.7073 60.2041 65.925C59.5907 65.3559 59.6437 64.5601 58.8676 64.1564Z" fill="#E99407"/>
<path d="M61.8739 65.1787C62.6458 65.6615 63.4513 66.8368 64.3128 67.4665C62.9781 68.0937 59.7559 70.1802 58.684 69.5688C55.7376 67.8883 59.2619 66.4153 60.2041 65.925C60.8434 65.7072 61.321 65.5806 61.8739 65.1787Z" fill="#F4EEE3"/>
<path d="M58.2658 64.3818C58.2594 64.4185 58.1818 64.8685 58.1818 64.8685C56.121 67.0145 53.7228 68.4252 52.161 71.0602C51.2511 72.488 51.0276 74.5705 51.1638 76.2786C51.1908 76.6173 51.5543 76.8977 51.8384 77.076C51.8765 77.0996 51.9153 77.1225 51.9544 77.1442C51.7775 77.2655 51.755 77.266 51.5609 77.3366C51.8048 77.8895 52.0158 77.4406 52.2524 78.2012C51.56 77.9353 50.9458 77.3442 50.4273 76.83C49.9048 74.1378 50.076 71.4645 51.9883 69.3333C53.7791 67.3375 55.6304 65.1977 58.2658 64.3818Z" fill="#CD7A1B"/>
<path d="M73.7468 64.2131C76.6743 64.329 80.1673 68.7971 81.6824 71.0006C81.5579 71.1738 81.2955 71.5165 81.211 71.692L80.6029 70.905C79.8898 69.1379 76.0651 66.5306 74.3689 65.548L74.2743 65.4203C73.8663 64.8634 73.7983 64.9424 73.7468 64.2131Z" fill="#CD7A1B"/>
<path d="M72.8591 67.0491C73.8479 67.1973 74.8994 68.6139 74.8166 69.5606C73.1648 69.5146 72.2016 68.8291 72.8591 67.0491Z" fill="#F4EEE3"/>
<path d="M39.7825 78.2583C39.9519 77.4628 41.0806 77.4543 41.6397 77.9223C41.8057 78.4689 41.644 78.5686 41.1984 78.8769C40.6377 80.1099 38.2946 79.9409 37.5575 79.15L37.5849 78.9568C38.0961 78.552 39.1416 78.3558 39.7825 78.2583Z" fill="#F4EEE3"/>
<path d="M39.7825 78.2583C39.9519 77.4628 41.0806 77.4543 41.6398 77.9223C41.8058 78.4689 41.644 78.5686 41.1984 78.8769C40.9483 78.7254 40.0928 78.3888 39.7825 78.2583Z" fill="#FAEAC0"/>
<path d="M81.7538 33.8473C82.3284 32.2792 83.9324 30.3713 85.267 29.3902C91.2565 24.9863 98.9535 26.7105 100.903 34.2105C100.565 34.6791 100.37 34.9057 100.187 35.4488L100.339 36.4325L100.733 36.0156C100.944 36.1833 101.064 36.3515 101.231 36.5582C101.29 38.0761 101.431 39.8282 101.224 41.3226C100.646 45.4876 97.0169 50.2986 92.321 48.844C92.1543 48.5265 92.0483 48.3899 92.0921 48.0261C92.4234 47.7131 92.3901 47.8006 92.907 47.695C92.607 47.5197 92.567 47.462 92.3421 47.194C92.199 46.807 92.304 46.6115 92.4286 46.2247C92.2196 45.6685 92.0764 45.6171 91.5441 45.5118C92.1979 44.6063 93.414 43.9961 93.7065 43.2815C92.5788 43.0694 90.504 42.896 89.2968 42.7497C89.1678 41.991 89.0975 41.3651 89.0228 40.601L88.1623 41.3456C87.7396 41.0288 87.8676 41.1641 87.6839 40.6196L88.4034 39.8138C88.6444 39.2897 88.73 39.1473 88.7505 38.579L88.6665 38.4032C87.3039 38.0061 85.7116 40.9606 84.3453 40.103C83.7164 39.673 83.4701 39.518 82.9535 38.9277L81.8784 37.8212C80.9795 36.8856 80.8059 34.7697 81.7538 33.8473Z" fill="#F4EEE3"/>
<path d="M99.871 34.4343L100.187 35.4488L100.339 36.4324L100.733 36.0156C100.944 36.1833 101.064 36.3515 101.231 36.5582C101.29 38.0761 101.431 39.8282 101.224 41.3226C100.646 45.4876 97.0169 50.2986 92.321 48.844C92.1542 48.5265 92.0482 48.3898 92.0921 48.0261C92.4234 47.7131 92.3901 47.8006 92.907 47.695C92.607 47.5197 92.567 47.462 92.3421 47.194C92.199 46.807 92.304 46.6115 92.4286 46.2247C92.2196 45.6685 92.0764 45.6171 91.5441 45.5118C92.1979 44.6063 93.414 43.9961 93.7065 43.2815C93.357 42.5232 93.6467 41.9771 94.2747 41.5307C93.8742 41.1097 93.6293 40.8055 93.1008 40.548C93.4809 40.0143 96.4077 38.9477 97.154 38.5426C97.9995 38.0836 98.8365 37.4001 99.5995 36.8138L99.7956 36.8981C99.6694 36.9892 99.6184 37.0342 99.5045 37.1409C99.5021 38.0937 97.8776 38.3793 97.085 38.7851C97.272 39.0232 97.1888 38.9483 97.5654 39.0175C99.983 38.1367 100.544 38.8185 99.8221 35.5632C99.7811 35.3788 99.8494 34.6505 99.871 34.4343Z" fill="#DDC5AE"/>
<path d="M100.339 36.4325L100.733 36.0156C100.944 36.1834 101.064 36.3515 101.231 36.5583C101.29 38.0761 101.431 39.8282 101.224 41.3226C100.646 45.4876 97.0169 50.2986 92.321 48.844C92.1542 48.5265 92.0482 48.3899 92.0921 48.0261C92.4234 47.7131 92.3901 47.8006 92.907 47.695C93.9684 47.9679 95.1506 48.0142 96.2259 47.778C96.2451 47.6554 96.301 47.4713 96.3342 47.3455L96.6316 47.26L96.8537 47.339C97.421 47.1238 98.8944 44.5141 99.2616 43.8784C100.544 41.6589 100.399 38.9135 100.339 36.4325Z" fill="#040100"/>
<path d="M93.7065 43.2815C94.0465 43.4257 94.3394 43.4582 94.3857 43.883C94.6259 44.5291 94.7696 44.8169 95.1683 45.3876C95.4508 46.1594 96.0734 47.115 96.2259 47.778C95.1506 48.0142 93.9684 47.9679 92.907 47.695C92.607 47.5197 92.567 47.462 92.3421 47.194C92.199 46.807 92.304 46.6115 92.4286 46.2247C92.2196 45.6685 92.0764 45.6171 91.5441 45.5119C92.1979 44.6064 93.414 43.9961 93.7065 43.2815Z" fill="#EDD0A7"/>
<path d="M93.7065 43.2815C94.0465 43.4257 94.3394 43.4582 94.3857 43.883C93.728 44.6592 93.0756 45.4397 92.4286 46.2247C92.2196 45.6685 92.0764 45.6171 91.5441 45.5119C92.1979 44.6064 93.414 43.9961 93.7065 43.2815Z" fill="#3A210B"/>
<path d="M93.7065 43.2815C93.357 42.5233 93.6467 41.9771 94.2747 41.5308C95.1941 42.397 94.9115 42.9213 95.5822 44.157L95.1147 43.8958L94.8924 43.9733C94.8675 44.618 95.3536 44.8129 95.1682 45.3876C94.7696 44.8169 94.6259 44.5291 94.3857 43.883C94.3394 43.4583 94.0465 43.4258 93.7065 43.2815Z" fill="#25150C"/>
<path d="M95.1683 45.3876C95.3536 44.8129 94.8675 44.618 94.8924 43.9733L95.1148 43.8958L95.5823 44.157C96.026 44.8024 96.4275 46.4699 96.6316 47.26L96.3343 47.3455C96.301 47.4713 96.2451 47.6554 96.2259 47.778C96.0734 47.115 95.4508 46.1594 95.1683 45.3876Z" fill="#18100B"/>
<path d="M87.7025 35.9945C89.0601 35.581 89.5725 35.9645 90.5111 36.9839C90.5042 38.1871 90.3994 39.9754 90.4365 41.1018C91.539 41.0826 92.0901 41.0886 93.1007 40.548C93.6292 40.8055 93.8742 41.1098 94.2747 41.5308C93.6467 41.9771 93.357 42.5233 93.7065 43.2815C92.5787 43.0694 90.504 42.896 89.2967 42.7498C89.1677 41.991 89.0975 41.3651 89.0227 40.601L88.1622 41.3456C87.7396 41.0289 87.8676 41.1641 87.6839 40.6196L88.4034 39.8139C88.6444 39.2898 88.73 39.1474 88.7505 38.579L88.6665 38.4033C87.3039 38.0061 85.7116 40.9606 84.3452 40.103L84.5564 39.6429L84.9092 39.6886C85.3467 39.3129 85.7616 38.591 86.0536 38.0859C86.6326 37.2849 87.0485 36.7314 87.7025 35.9945Z" fill="#61462E"/>
<path d="M88.4034 39.8138L88.5665 40.3282L88.869 40.377L89.0227 40.601L88.1622 41.3456C87.7396 41.0288 87.8676 41.1641 87.6839 40.6196L88.4034 39.8138Z" fill="#775A43"/>
<path d="M81.7538 33.8473C82.3284 32.2792 83.9324 30.3713 85.267 29.3902C91.2565 24.9863 98.9535 26.7105 100.903 34.2105C100.565 34.6791 100.37 34.9057 100.187 35.4488L99.871 34.4343C98.3734 30.1448 95.8278 27.3497 90.7923 28.1178C86.6839 28.7446 84.867 30.9016 82.5309 34.1017L82.4477 34.3986L81.7538 33.8473Z" fill="#3A210B"/>
<path d="M81.8784 37.8213C80.9795 36.8857 80.8059 34.7698 81.7538 33.8474L82.4478 34.3987L82.5309 34.1018C83.7043 34.4853 84.63 34.7727 85.705 35.4255C86.5278 35.925 86.7338 36.0765 87.7025 35.9945C87.0485 36.7314 86.6326 37.2849 86.0536 38.0859C85.7616 38.591 85.3468 39.3129 84.9093 39.6887L84.5564 39.6429L84.3453 40.103C83.7164 39.673 83.4701 39.518 82.9535 38.9278L81.8784 37.8213Z" fill="#CCA06B"/>
<path d="M82.5672 37.1331C82.8526 37.4759 83.0877 37.8432 83.5021 37.9747C84.1429 37.6694 84.769 37.3649 85.4792 37.4793C85.7109 37.6638 85.979 37.8206 86.0536 38.0859C85.7616 38.5911 85.3467 39.3129 84.9092 39.6887L84.5564 39.6429L84.3452 40.1031C83.7164 39.6731 83.4701 39.5181 82.9535 38.9278L81.8784 37.8213C82.2251 37.6281 82.3327 37.4433 82.5672 37.1331Z" fill="#18100B"/>
<path d="M85.4792 37.4792C85.7109 37.6637 85.979 37.8205 86.0536 38.0859C85.7616 38.591 85.3467 39.3129 84.9092 39.6886L84.5564 39.6429C84.0225 38.3937 84.746 38.4067 85.4161 37.56L85.4792 37.4792Z" fill="#DCB888"/>
<path d="M81.8784 37.8213C80.9795 36.8857 80.8059 34.7698 81.7538 33.8474L82.4478 34.3987C82.2451 35.4702 82.0979 36.081 82.5673 37.133C82.3328 37.4433 82.2251 37.628 81.8784 37.8213Z" fill="#040100"/>
<path d="M26.5984 30.086C27.4976 24.2095 36.7906 26.3698 39.0396 30.1929C40.2799 32.3011 40.7399 33.7504 40.5979 36.2903C40.5685 37.0043 41.3632 37.6388 40.7456 38.3708C40.3386 37.9964 40.0289 37.571 39.7236 37.115C39.2876 35.645 40.2685 35.8355 39.6571 34.6266C38.3289 34.8931 37.4255 32.6941 36.3394 34.3165C36.238 34.4706 36.1416 34.6279 36.0505 34.7881C36.1457 36.2003 36.344 37.5874 36.9874 38.8776C36.974 39.4064 37.0599 39.2966 36.7625 39.5969L35.8606 39.7459C36.422 39.749 36.8549 39.6514 37.1991 39.9909L37.2554 40.4231C34.7851 40.6643 34.4547 40.5171 32.1649 39.663C29.4356 38.9703 27.6054 36.3438 26.825 33.7891C26.563 32.4591 26.4539 31.4314 26.5984 30.086Z" fill="#F4EEE3"/>
<path d="M27.9323 29.3376C27.9901 30.7499 29.6534 32.0315 30.6494 33.0355C32.1449 34.5429 34.184 34.9388 35.9586 36.2181C35.9678 35.901 35.9668 35.0466 36.0505 34.7881C36.1458 36.2003 36.344 37.5874 36.9874 38.8776C36.974 39.4064 37.0599 39.2966 36.7625 39.5969L35.8606 39.7459C36.422 39.749 36.8549 39.6514 37.1991 39.9909L37.2554 40.4231C34.7851 40.6643 34.4548 40.5171 32.1649 39.663C29.4356 38.9703 27.6054 36.3438 26.825 33.7891C26.8768 33.3879 26.8888 33.0174 27.1015 32.6763C27.537 32.6749 27.5185 32.7729 27.9525 33.0795C27.8254 32.5136 27.7856 32.0256 27.7286 31.4525C27.7824 30.7463 27.8504 30.0413 27.9323 29.3376Z" fill="#DCB888"/>
<path d="M26.825 33.7892C26.8768 33.3879 26.8888 33.0174 27.1015 32.6763C27.537 32.6749 27.5185 32.7729 27.9525 33.0795C28.6223 35.3643 29.2065 37.0698 31.473 38.3395C32.0084 38.6395 32.6653 38.8892 33.1694 39.1687C32.8071 39.6567 32.834 39.6244 32.1649 39.663C29.4356 38.9703 27.6054 36.3438 26.825 33.7892Z" fill="#040100"/>
<path d="M33.1694 39.1687C34.4977 39.5988 34.5509 39.5893 35.8606 39.746C36.422 39.7491 36.8549 39.6515 37.1991 39.991L37.2554 40.4232C34.7851 40.6643 34.4547 40.5172 32.1649 39.6631C32.834 39.6244 32.8071 39.6567 33.1694 39.1687Z" fill="#18100B"/>
<path d="M26.5984 30.086C27.4976 24.2095 36.7906 26.3698 39.0396 30.1929C40.2799 32.3011 40.7399 33.7504 40.5979 36.2903C40.5685 37.0043 41.3632 37.6388 40.7456 38.3708C40.3386 37.9964 40.0289 37.571 39.7236 37.115C39.2876 35.645 40.2685 35.8355 39.6571 34.6266C39.638 34.4729 39.6142 34.3199 39.5859 34.1676C39.2807 32.5535 37.6181 30.0353 36.305 29.0503C33.9105 27.2541 29.8276 26.428 27.9322 29.3376C27.8504 30.0413 27.7824 30.7463 27.7286 31.4525C27.7856 32.0256 27.8254 32.5136 27.9525 33.0795C27.5185 32.7729 27.537 32.6749 27.1015 32.6763C26.8887 33.0174 26.8767 33.3879 26.825 33.7891C26.563 32.4591 26.4539 31.4314 26.5984 30.086Z" fill="#4B3116"/>
<path d="M26.5984 30.0859L26.946 30.4423L26.9441 30.5384C26.9402 30.8321 26.933 31.0138 27.1562 31.2379L27.4299 31.1983L27.5042 30.8943L27.6211 31.0689L27.4856 31.1003C27.7282 31.2751 27.649 31.1619 27.7286 31.4524C27.7856 32.0256 27.8254 32.5136 27.9525 33.0794C27.5185 32.7728 27.537 32.6748 27.1015 32.6762C26.8887 33.0173 26.8767 33.3878 26.825 33.7891C26.563 32.4591 26.4539 31.4313 26.5984 30.0859Z" fill="#25150C"/>
<path d="M84.6926 95.392C85.6859 94.1874 87.811 93.961 89.2641 93.794C93.1179 93.3515 96.8929 94.0331 99.242 97.354C99.2501 97.8143 99.2834 98.4616 99.2216 98.901C98.6414 99.8384 97.678 100.453 96.6782 100.876C96.4105 100.977 96.1376 101.064 95.8607 101.137C92.5894 102.028 87.5004 101.648 84.496 99.9281C82.0725 98.6106 83.3012 96.8953 84.6926 95.392Z" fill="#F4EEE3"/>
<path d="M84.6926 95.392C84.7806 95.7385 84.8746 96.2283 85.0887 96.4905L85.7261 96.2267C86.0167 96.8556 86.924 97.2471 87.5546 97.644C89.1256 98.6326 91.2974 98.9418 93.127 98.8517C94.0864 98.8045 97.6771 98.2788 98.2575 97.6317C98.3226 98.0787 98.326 98.1506 98.269 98.5976L99.2216 98.901C98.6414 99.8383 97.678 100.453 96.6782 100.876C96.4105 100.977 96.1376 101.064 95.8607 101.137C92.5894 102.028 87.5004 101.648 84.496 99.9281C82.0725 98.6106 83.3012 96.8952 84.6926 95.392Z" fill="#DCB888"/>
<path d="M84.496 99.9281C85.3206 99.3731 85.5009 100.005 86.5608 99.5798C89.3658 100.626 93.0827 101.086 95.9697 100.168C96.2156 100.44 96.3875 100.643 96.6783 100.876C96.4105 100.977 96.1376 101.064 95.8607 101.137C92.5894 102.028 87.5004 101.648 84.496 99.9281Z" fill="#4A352B"/>
<path d="M84.6926 95.392C84.7806 95.7385 84.8746 96.2283 85.0887 96.4905C84.7269 96.9607 84.7569 96.7926 84.6937 97.3346C84.842 97.7812 84.9785 97.9267 85.2629 98.298C85.6767 98.765 86.0457 99.2243 86.5607 99.5798C85.5009 100.005 85.3206 99.3731 84.496 99.9281C82.0725 98.6106 83.3012 96.8952 84.6926 95.392Z" fill="#775A43"/>
<path d="M85.0888 96.4906L85.7261 96.2268C86.0168 96.8557 86.924 97.2472 87.5546 97.6441C86.571 98.4522 86.4978 98.2043 85.2629 98.298C84.9785 97.9268 84.842 97.7813 84.6938 97.3347C84.7569 96.7927 84.7269 96.9608 85.0888 96.4906Z" fill="#FAEAC0"/>
<path d="M98.269 98.5977L99.2216 98.901C98.6414 99.8384 97.678 100.453 96.6783 100.876C96.3875 100.643 96.2156 100.44 95.9698 100.168C96.8313 99.9124 97.7171 99.3092 98.269 98.5977Z" fill="#775A43"/>
<path d="M84.6926 95.392C85.6859 94.1874 87.811 93.961 89.2641 93.794C93.1179 93.3515 96.8929 94.0331 99.242 97.354C99.2501 97.8143 99.2834 98.4616 99.2216 98.901L98.269 98.5976C98.326 98.1506 98.3226 98.0788 98.2575 97.6318C96.5824 95.2691 95.5554 96.5588 94.1106 95.595C91.9045 94.1234 87.8029 95.1095 85.7261 96.2268L85.0888 96.4905C84.8746 96.2284 84.7806 95.7385 84.6926 95.392Z" fill="#9C7144"/>
<path d="M115.905 59.0284C116.586 58.5784 118.641 58.5132 119.471 58.709C120.746 59.0103 121.431 59.5024 122.241 60.5088C122.262 61.3843 122.286 62.1244 122.22 62.9982C120.137 66.2229 115.51 66.9807 111.988 66.2884C111.648 65.9358 110.946 65.1005 110.505 65.0304C110.664 64.8525 110.677 64.8508 110.899 64.746L110.954 64.7204L110.923 64.6349C111.482 64.5345 111.268 64.519 111.799 64.7723L111.858 64.5668C111.468 64.3987 111.38 64.3653 111.039 64.0974L111.005 63.789L110.852 63.7112L110.419 64.3629L110.284 64.1718C110.246 63.6204 110.291 63.73 110.557 63.1683L110.441 62.9083C110.863 61.728 112.812 60.045 114.023 59.6167C114.687 59.3814 115.601 59.8027 115.905 59.0284Z" fill="#F4EEE3"/>
<path d="M115.905 59.0284C116.586 58.5784 118.641 58.5132 119.471 58.709C120.746 59.0103 121.431 59.5024 122.241 60.5088C122.262 61.3843 122.286 62.1244 122.22 62.9982C120.137 66.2229 115.511 66.9807 111.989 66.2884C111.648 65.9358 110.946 65.1005 110.505 65.0304C110.664 64.8525 110.677 64.8508 110.899 64.746L110.955 64.7204L110.923 64.6349C111.482 64.5345 111.268 64.519 111.799 64.7723L111.858 64.5668C114.811 65.0204 119.185 65.1075 120.974 62.1192C121.231 60.2067 119.282 59.8795 117.843 59.6709C117.475 59.4157 116.776 59.6068 115.905 59.0284Z" fill="#A07E5D"/>
<path d="M111.904 62.9528C114.335 64.2971 118.059 61.6013 120.974 62.1191C119.185 65.1075 114.811 65.0204 111.858 64.5668C111.468 64.3986 111.38 64.3653 111.039 64.0974L111.005 63.789C111.194 63.665 111.712 63.1395 111.904 62.9528Z" fill="#FAECD0"/>
<path d="M110.441 62.9082C110.863 61.7279 112.812 60.0449 114.023 59.6166C114.687 59.3813 115.601 59.8026 115.905 59.0283C116.776 59.6067 117.475 59.4156 117.843 59.6708C115.918 59.7926 113.293 61.6548 111.904 62.9527C111.712 63.1394 111.194 63.6649 111.005 63.7889L110.852 63.7111L110.419 64.3628L110.284 64.1717C110.246 63.6203 110.291 63.7299 110.557 63.1682L110.441 62.9082Z" fill="#A07E5D"/>
<path d="M84.3025 48.9178C84.7185 49.1992 85.2099 49.5122 85.5865 49.8342C84.6331 52.9115 83.3094 54.8135 83.2914 58.0293C83.9429 57.8498 85.1918 57.5102 85.7766 57.2693C88.051 56.3322 88.4193 55.8567 90.8859 55.6921C91.3745 56.5405 92.5215 58.3122 92.5511 59.204C91.9489 60.7226 89.6894 63.273 88.8828 64.9845C88.4705 65.8591 87.9174 66.3861 87.4855 67.4916C87.7192 67.9631 87.9488 68.4367 88.1739 68.9125L87.3688 68.9545C87.3235 68.8727 86.2339 67.9926 86.0665 67.8523L85.8304 67.2435C86.0729 66.4642 86.3498 65.4595 86.7685 64.773L86.821 64.6881C87.2435 63.9925 87.6975 63.628 88.2971 63.0826L88.2825 63.0211C88.1501 62.4628 87.9605 61.954 88.247 61.488C88.9099 61.542 88.7005 62.0265 89.4355 62.1479C90.2163 61.3334 89.3919 61.0943 89.6724 60.2613C90.0071 59.9787 90.2789 60.1653 90.9078 59.9715C91.2368 59.6348 91.5084 59.1685 91.2161 58.705C89.151 55.4305 85.0159 59.7431 82.2674 59.3836C81.9826 59.3462 81.9596 58.8465 81.8851 58.6348C81.0853 56.381 84.5681 51.0443 83.8988 49.3996C84.2126 49.193 84.1036 49.2942 84.3025 48.9178Z" fill="#A17547"/>
<path d="M76.2972 48.2548C76.7569 48.4953 77.8009 48.9414 77.9927 49.375C77.3584 49.74 76.5842 50.2003 76.75 51.0535L76.9439 51.3149L77.4205 51.4545C77.5321 51.773 77.3505 52.0933 77.13 52.348C76.8925 52.5203 76.6622 52.7023 76.4397 52.8935C75.7821 53.4705 74.069 55.5484 74.022 56.473C73.4465 57.3396 72.5312 58.0936 71.8179 58.9156C66.9007 64.5813 64.0399 53.1639 61.43 50.6238C61.201 50.4009 61.0247 50.1654 60.8324 49.9099C60.9789 49.6994 61.699 49.4301 61.8369 49.585C64.6091 52.6998 66.2291 57.2671 69.6885 59.6588C70.8887 58.4691 74.5154 53.3491 75.3261 51.6443C75.7479 50.7571 75.4007 49.4048 76.2972 48.2548Z" fill="#9C7144"/>
<path d="M14.5888 70.3823C12.7999 68.6327 13.709 67.7271 15.162 66.4033C15.2975 66.2719 15.4474 65.7778 15.6314 65.7302C17.1599 65.3353 18.8024 65.3211 20.3529 65.5449C20.8064 65.9701 21.2761 66.3914 21.7355 66.8114C22.5116 67.2304 23.178 67.4558 22.8071 68.4739C22.0226 69.2129 21.2491 68.6349 20.6846 67.9662C20.2834 67.6089 20.0768 67.4133 19.6185 67.1403C18.9599 67.0167 16.8576 66.8957 16.281 67.1617C15.926 67.5533 15.9095 68.2588 16.2726 68.7516C17.031 69.7812 21.0945 68.583 20.9718 70.0913C19.8716 71.8868 16.2178 70.9738 14.5888 70.3823Z" fill="#DCB888"/>
<path d="M21.7355 66.8114C22.5116 67.2304 23.178 67.4558 22.8071 68.4739C22.0226 69.2129 21.2491 68.6349 20.6846 67.9661C20.2834 67.6089 20.0767 67.4133 19.6185 67.1403L20.5481 67.0855C20.8881 66.974 21.2663 66.966 21.7355 66.8114Z" fill="#DCB888"/>
<path d="M20.5481 67.0855C21.0009 67.076 21.5457 66.9986 21.8825 67.2703C21.8037 67.746 21.116 67.844 20.6846 67.9661C20.2834 67.6088 20.0767 67.4132 19.6185 67.1402L20.5481 67.0855Z" fill="#FAECD0"/>
<path d="M62.8392 95.1055C63.8326 93.8271 65.4762 94.5545 66.7562 95.0276C67.5622 95.3827 68.9431 96.2461 68.2459 97.3033C67.4294 98.5408 63.3006 99.4772 62.1425 98.5131C60.672 97.289 61.4225 95.9706 62.8392 95.1055Z" fill="#CCA06B"/>
<path d="M62.8392 95.1055C63.8326 93.8271 65.4762 94.5545 66.7562 95.0276C66.4731 95.3385 66.5525 95.2185 66.5335 95.7157C65.5852 97.1317 64.7612 96.9656 63.1975 96.8838L63.0827 95.3188L62.8392 95.1055Z" fill="#FAECD0"/>
<path d="M62.8392 95.1055C63.8326 93.8271 65.4762 94.5545 66.7562 95.0276C66.4731 95.3385 66.5525 95.2185 66.5335 95.7157C66.0792 94.6303 63.8976 94.9056 63.0827 95.3188L62.8392 95.1055Z" fill="#EDD0A7"/>
<path d="M33.5005 90.5149C34.8056 90.3674 35.6381 91.119 36.4071 92.0658C36.2488 93.1339 36.1649 93.4179 35.6723 94.3391C34.5163 95.0481 33.9596 95.1108 32.653 95.3701C31.835 95.3493 30.0988 94.8174 29.873 93.9161C29.3798 91.9459 32.0838 90.995 33.5005 90.5149Z" fill="#CCA06B"/>
<path d="M34.8667 91.7859C35.3094 91.7902 35.1619 91.734 35.4852 91.9469L35.5502 92.2793C35.2259 93.5947 34.0049 93.6765 32.9137 93.6054C32.5689 93.5328 32.451 93.3929 32.179 93.1678C31.9221 92.0854 34.0945 92.0204 34.8667 91.7859Z" fill="#F4EEE3"/>
<path d="M60.9813 40.6892C61.4361 40.9307 62.8459 42.05 63.4191 42.4192C63.8053 44.0551 63.8348 45.1651 63.8806 46.8578C63.1704 47.075 62.5029 47.2515 61.7843 47.4362L61.2493 47.5802C60.6679 47.3247 59.6835 45.4103 59.1387 44.6508C59.1277 44.0906 59.0964 43.351 59.3168 42.8476L59.3483 42.7771C59.6599 42.0648 60.437 41.2877 60.9813 40.6892Z" fill="#CCA06B"/>
<path d="M60.7264 43.5095L61.5236 43.4855C62.5007 44.0107 62.0926 45.4597 61.8397 46.3517C61.0519 45.6747 60.1159 44.5482 60.7264 43.5095Z" fill="#FAEAC0"/>
<path d="M36.0505 34.7881C36.1416 34.6278 36.238 34.4706 36.3394 34.3165C37.4255 32.6941 38.3289 34.8931 39.6571 34.6266C40.2685 35.8355 39.2876 35.645 39.7236 37.115C40.0289 37.571 40.3386 37.9963 40.7456 38.3707C40.4271 38.5478 40.4249 38.6916 40.243 38.8291C39.2861 39.4947 38.8323 39.1213 37.9021 38.6652L37.8589 39.0367C37.6248 38.5653 37.7721 38.7028 37.3201 38.5007L37.0914 38.5983L36.9874 38.8776C36.344 37.5873 36.1458 36.2002 36.0505 34.7881Z" fill="#775A43"/>
<path d="M37.8039 37.8499C37.4352 37.2029 37.0011 36.0859 37.9545 35.7188C39.1031 35.8645 38.8471 36.2796 39.6421 37.038L39.7236 37.115C40.0289 37.571 40.3386 37.9964 40.7456 38.3708C40.4271 38.5479 40.4249 38.6916 40.243 38.8291C39.2861 39.4947 38.8322 39.1214 37.9021 38.6652C37.841 38.469 37.8222 38.0704 37.8039 37.8499Z" fill="#FAECD0"/>
<path d="M37.8039 37.8499C38.6566 38.222 39.3654 38.5236 40.243 38.8291C39.2861 39.4947 38.8323 39.1214 37.9021 38.6652C37.841 38.469 37.8223 38.0704 37.8039 37.8499Z" fill="#744A2A"/>
<path d="M96.3765 60.3217C97.388 60.3443 99.1374 60.8739 99.1609 62.113C98.8711 62.8153 98.2808 63.0875 97.633 63.4647C97.1089 63.5917 96.5726 63.662 96.0335 63.6745C95.5551 63.6814 95.4657 63.6054 95.1687 63.3167C94.942 62.5855 95.955 61.1369 96.3765 60.3217Z" fill="#EDD0A7"/>
<path d="M76.2972 48.2547C76.9132 47.6247 77.8787 46.3688 78.6916 46.3516C79.5535 46.6391 80.0809 47.6339 79.8804 48.5092C79.5261 49.0508 78.6007 49.0743 77.9927 49.3749C77.8009 48.9413 76.7569 48.4952 76.2972 48.2547Z" fill="#CCA06B"/>
<path d="M85.5076 44.9614C86.6076 46.0809 87.4177 44.4697 88.6034 44.8411C89.5085 45.9174 88.1579 48.2549 84.934 45.4096L85.5076 44.9614Z" fill="#CD7A1B"/>
<path d="M110.441 62.9082L110.557 63.1682C110.291 63.73 110.246 63.6203 110.284 64.1717L110.419 64.3628L110.852 63.7111L111.005 63.789L111.039 64.0973C111.38 64.3652 111.468 64.3986 111.858 64.5667L111.799 64.7722C111.268 64.519 111.482 64.5345 110.923 64.6348L110.954 64.7203L110.899 64.746C110.677 64.8507 110.664 64.8525 110.505 65.0303C110.537 65.4662 110.632 66.074 110.48 66.4555C109.985 66.6697 108.862 66.625 108.551 66.1431C108.568 65.2488 109.382 64.6761 109.762 64.0582C110.121 63.4745 109.859 63.6068 110.441 62.9082Z" fill="#9C7144"/>
<path d="M81.8023 48.9551C82.1208 49.1062 82.2854 49.2043 82.6434 49.2473C79.7436 51.4461 80.0252 50.8868 77.13 52.3481C77.3505 52.0933 77.5321 51.7731 77.4205 51.4546L76.9439 51.315C79.0096 51.301 80.2678 50.1375 81.8023 48.9551Z" fill="#CD7A1B"/>
<path d="M86.0426 43.5126C86.2905 43.4221 86.7116 43.2708 86.9696 43.2617C86.4533 43.9343 86.0925 44.3455 85.5076 44.9615L84.934 45.4096C84.5189 45.051 84.4039 44.9576 84.1029 44.506C84.0161 43.5003 85.2881 43.5772 86.0426 43.5126Z" fill="#9C7144"/>
<path d="M91.5441 45.512C92.0764 45.6172 92.2196 45.6686 92.4286 46.2248C92.304 46.6116 92.199 46.8071 92.3421 47.1941C92.567 47.4621 92.607 47.5198 92.907 47.6951C92.3901 47.8007 92.4234 47.7132 92.0921 48.0262C92.0482 48.39 92.1542 48.5266 92.321 48.8441C90.9684 48.1185 91.1371 46.7795 91.5441 45.512Z" fill="#18100B"/>
<path d="M86.0426 43.5126C86.2325 42.0931 86.7418 41.6355 87.6839 40.6196C87.8676 41.1641 87.7396 41.0289 88.1623 41.3456C87.9414 41.7174 87.2005 43.0104 86.9696 43.2618C86.7116 43.2709 86.2905 43.4221 86.0426 43.5126Z" fill="#835C33"/>
<path d="M36.9874 38.8776L37.0914 38.5984L37.3201 38.5007C37.7721 38.7029 37.6248 38.5654 37.8589 39.0367C37.9345 39.5702 38.0549 39.7987 37.8771 40.2445C37.6015 40.3726 37.557 40.386 37.2554 40.4231L37.1991 39.9909C36.8549 39.6514 36.422 39.749 35.8606 39.7459L36.7625 39.5969C37.0599 39.2966 36.974 39.4064 36.9874 38.8776Z" fill="#3A210B"/>
<path d="M81.8022 48.955C82.7544 48.2492 83.2665 48.4355 84.3025 48.9179C84.1036 49.2943 84.2126 49.193 83.8987 49.3997C83.4881 49.2789 83.0714 49.2739 82.6434 49.2473C82.2854 49.2043 82.1207 49.1062 81.8022 48.955Z" fill="#9C7144"/>
<path d="M100.187 35.4488C100.37 34.9057 100.565 34.6791 100.903 34.2104C101.034 35.0047 101.169 35.7546 101.231 36.5582C101.064 36.3515 100.944 36.1833 100.733 36.0156L100.339 36.4324L100.187 35.4488Z" fill="#25150C"/>
</g>
<defs>
<clipPath id="clip0_2_2">
<rect width="128" height="128" fill="white"/>
</clipPath>
</defs>
</svg>
